<svg id="i_group" xmlns="http://www.w3.org/2000/svg" xmlns:xlink="http://www.w3.org/1999/xlink" width="220.906" height="69.625" viewBox="0 0 220.906 69.625">
  <metadata><?xpacket begin="﻿" id="W5M0MpCehiHzreSzNTczkc9d"?>
<x:xmpmeta xmlns:x="adobe:ns:meta/" x:xmptk="Adobe XMP Core 5.6-c138 79.159824, 2016/09/14-01:09:01        ">
   <rdf:RDF xmlns:rdf="http://www.w3.org/1999/02/22-rdf-syntax-ns#">
      <rdf:Description rdf:about=""/>
   </rdf:RDF>
</x:xmpmeta>
                                                                                                    
                                                                                                    
                                                                                                    
                                                                                                    
                                                                                                    
                                                                                                    
                                                                                                    
                                                                                                    
                                                                                                    
                                                                                                    
                                                                                                    
                                                                                                    
                                                                                                    
                                                                                                    
                                                                                                    
                                                                                                    
                                                                                                    
                                                                                                    
                                                                                                    
                                                                                                    
                           
<?xpacket end="w"?></metadata>
<defs>
    <style>
      .cls-1, .cls-2 {
        fill: #fff;
      }

      .cls-1, .cls-2, .cls-3 {
        fill-rule: evenodd;
      }

      .cls-1 {
        filter: url(#filter);
      }

      .cls-2 {
        filter: url(#filter-2);
      }

      .cls-3 {
        fill: #815ca6;
      }
    </style>
    <filter id="filter" x="274" y="631" width="43" height="55" filterUnits="userSpaceOnUse">
      <feFlood result="flood" flood-color="#815ca6"/>
      <feComposite result="composite" operator="in" in2="SourceGraphic"/>
      <feBlend result="blend" in2="SourceGraphic"/>
    </filter>
    <filter id="filter-2" x="241" y="653" width="17" height="33" filterUnits="userSpaceOnUse">
      <feFlood result="flood" flood-color="#815ca6"/>
      <feComposite result="composite" operator="in" in2="SourceGraphic"/>
      <feBlend result="blend" in2="SourceGraphic"/>
    </filter>
  </defs>
  <path id="iPad" class="cls-1" d="M313.076,631H277.914A3.93,3.93,0,0,0,274,634.919v47.162A3.93,3.93,0,0,0,277.914,686h35.162A3.931,3.931,0,0,0,317,682.081V634.919A3.931,3.931,0,0,0,313.076,631ZM295.5,633a0.5,0.5,0,1,1-.5.5A0.5,0.5,0,0,1,295.5,633Zm0,52a1.5,1.5,0,1,1,1.5-1.5A1.5,1.5,0,0,1,295.5,685Zm16.5-4H279V636h33v45Z" transform="translate(-241 -616.375)"/>
  <path id="iPhone_4" data-name="iPhone 4" class="cls-2" d="M254.855,653h-10.72a3.149,3.149,0,0,0-3.14,3.14v26.72a3.149,3.149,0,0,0,3.14,3.14h10.72a3.149,3.149,0,0,0,3.14-3.14V656.14A3.149,3.149,0,0,0,254.855,653ZM248,656h3a0.5,0.5,0,0,1,0,1h-3A0.5,0.5,0,0,1,248,656Zm-2.5,0a0.5,0.5,0,1,1-.5.5A0.5,0.5,0,0,1,245.5,656Zm4,28a1.5,1.5,0,1,1,1.5-1.5A1.5,1.5,0,0,1,249.5,684Zm7.5-4H242V659h15v21Z" transform="translate(-241 -616.375)"/>
  <path id="Macbook_Pro" data-name="Macbook Pro" class="cls-3" d="M461.919,680.472l-0.006,3.131a2.406,2.406,0,0,1-2.7,2.339H334.333c-1.5,0-2.634-.6-2.634-2.1v-3.361Zm-54.338-.236v1.017a1.585,1.585,0,0,1-1.384,1.579H387.166a1.7,1.7,0,0,1-1.494-1.591v-1.017Zm-59.428-63.858h97.261a2.814,2.814,0,0,1,2.828,2.718v57.5a2.814,2.814,0,0,1-2.828,2.719H348.153A2.75,2.75,0,0,1,345.4,676.6V619.1A2.75,2.75,0,0,1,348.153,616.378Zm1.937,4.629,93.471,0.025V674.6l-93.471.013v-53.6Zm46.545-2.945a0.646,0.646,0,1,1-.645.645A0.646,0.646,0,0,1,396.635,618.062Z" transform="translate(-241 -616.375)"/>
</svg>
