<svg xmlns="http://www.w3.org/2000/svg" xmlns:xlink="http://www.w3.org/1999/xlink" width="22" height="21" viewBox="0 0 22 21">
  <metadata><?xpacket begin="﻿" id="W5M0MpCehiHzreSzNTczkc9d"?>
<x:xmpmeta xmlns:x="adobe:ns:meta/" x:xmptk="Adobe XMP Core 5.6-c138 79.159824, 2016/09/14-01:09:01        ">
   <rdf:RDF xmlns:rdf="http://www.w3.org/1999/02/22-rdf-syntax-ns#">
      <rdf:Description rdf:about=""/>
   </rdf:RDF>
</x:xmpmeta>
                                                                                                    
                                                                                                    
                                                                                                    
                                                                                                    
                                                                                                    
                                                                                                    
                                                                                                    
                                                                                                    
                                                                                                    
                                                                                                    
                                                                                                    
                                                                                                    
                                                                                                    
                                                                                                    
                                                                                                    
                                                                                                    
                                                                                                    
                                                                                                    
                                                                                                    
                                                                                                    
                           
<?xpacket end="w"?></metadata>
<defs>
    <style>
      .cls-1 {
        fill: #c7a2eb;
        fill-rule: evenodd;
        filter: url(#filter);
      }
    </style>
    <filter id="filter" x="918" y="295" width="22" height="21" filterUnits="userSpaceOnUse">
      <feFlood result="flood" flood-color="#fff"/>
      <feComposite result="composite" operator="in" in2="SourceGraphic"/>
      <feBlend result="blend" in2="SourceGraphic"/>
    </filter>
  </defs>
  <path id="linkedin_copy" data-name="linkedin copy" class="cls-1" d="M934.972,308.779c0-1.812-.369-3.051-2.077-3.051a3.064,3.064,0,0,0-2.734,1.642,2.935,2.935,0,0,0-.155,1.093V316h-5.029s0.061-12.726,0-13.989h5.029v2.409a0.358,0.358,0,0,1-.031.045h0.031v-0.045A5.429,5.429,0,0,1,934.571,302c3.1,0,5.431,2.114,5.431,6.258V316h-5.03v-7.218Zm-14.339-8.114H920.6A2.711,2.711,0,1,1,920.633,300.665ZM922.993,316h-4.719V302.508h4.719V316ZM920.5,295a3.036,3.036,0,1,1-3.5,3A3.279,3.279,0,0,1,920.5,295Zm0,0a2.5,2.5,0,1,1-2.5,2.5A2.5,2.5,0,0,1,920.5,295Zm-2.5,7h5v14h-5V302Z" transform="translate(-918 -295)"/>
</svg>
